<svg xmlns="http://www.w3.org/2000/svg" xmlns:xlink="http://www.w3.org/1999/xlink" id="Layer_1" width="40" height="40" x="0" style="enable-background:new 0 0 64 64" y="0" version="1.1" viewBox="0 0 64 64" xml:space="preserve"><style type="text/css">.st0{fill:#c2c2c2}.st1{fill:#6265a8}</style><title>arrow_right_2</title><g id="Layer_2_1_"><g id="SYMBOLS"><g id="arrow_right_2"><path d="M33.4,1C16.3,0.2,1.8,13.5,1.1,30.6S13.5,62.2,30.6,63C47.7,63.7,62.2,50.5,63,33.5 C63.8,16.4,50.6,1.8,33.4,1C33.5,1,33.5,1,33.4,1z M33.9,48.6l-2.7-2.7l12.4-12.5H12.8v-3.9h30.8L31.2,17.1l2.8-2.7l17,17 L33.9,48.6z" class="st0"/><polygon points="31.3 17.2 43.7 29.6 12.9 29.6 12.9 33.4 43.7 33.4 31.1 45.9 33.9 48.6 51.1 31.5 34.1 14.4" class="st1"/></g></g></g></svg>