<svg xmlns="http://www.w3.org/2000/svg" xmlns:xlink="http://www.w3.org/1999/xlink" id="Layer_1" width="40" height="40" x="0" style="enable-background:new 0 0 64 64" y="0" version="1.1" viewBox="0 0 64 64" xml:space="preserve"><style type="text/css">.st0{fill:#d2d2d2}.st1{fill:#c2c2c2}.st2{fill:#e6e6e6}.st3{fill:#939393}</style><title>chat</title><g id="Layer_2_1_"><g id="SYMBOLS"><path d="M3,49.4h8.3V56l3.2-3.3c1.2-1.2,2.2-2.2,3.3-3.3h30.7v-29H3V49.4z" class="st0"/><path d="M48.6,49.4H17.9c-1.1,1.1-2.2,2.2-3.3,3.3L11.3,56v-6.6H3v-29h45.6V49.4z" class="st1"/><polygon points="11.3 16.3 52.7 16.3 52.7 41.1 61 41.1 61 8 11.3 8" class="st2"/><polygon points="61 41.1 52.7 41.1 52.7 16.3 11.3 16.3 11.3 8 61 8" class="st3"/></g></g></svg>