<svg xmlns="http://www.w3.org/2000/svg" xmlns:xlink="http://www.w3.org/1999/xlink" id="Layer_1" width="40" height="40" x="0" style="enable-background:new 0 0 64 64" y="0" version="1.1" viewBox="0 0 64 64" xml:space="preserve"><style type="text/css">.st0{fill:#c2c2c2}.st1{fill:#6265a8}</style><title>process_flow</title><g id="Layer_2_1_"><g id="SYMBOLS"><g id="process_flow"><path d="M42,37.2h19v19H42v-7.6H29.6L17.3,61L3,46.7l12.3-12.4V22H7.8V3h19v19h-7.6v12.3l10.4,10.5H42V37.2z M17.3,55.3l8.6-8.5l-8.6-8.6l-8.6,8.6L17.3,55.3z M11.6,6.8v11.4H23V6.8H11.6z M57.2,52.4V41.1H45.8v11.4L57.2,52.4z" class="st0"/><rect width="11.4" height="11.4" x="45.8" y="41" class="st1"/><rect width="11.4" height="11.4" x="11.6" y="6.8" class="st1"/><rect width="12.1" height="12.1" x="11.2" y="40.7" class="st1" transform="matrix(0.7071 -0.7071 0.7071 0.7071 -28.022 25.9058)"/></g></g></g></svg>