<svg xmlns="http://www.w3.org/2000/svg" xmlns:xlink="http://www.w3.org/1999/xlink" id="Layer_1" width="40" height="40" x="0" style="enable-background:new 0 0 64 64" y="0" version="1.1" viewBox="0 0 64 64" xml:space="preserve"><style type="text/css">.st0{fill:#c2c2c2}.st1{fill:#6265a8}</style><title>tasks</title><g id="Layer_2_1_"><g id="SYMBOLS"><g id="tasks"><path d="M38.2,9.4c0.2-3.4-2.4-6.3-5.8-6.5C29,2.7,26,5.4,25.9,8.8c0,0.2,0,0.4,0,0.7H9.4V61h45.3V9.4H38.2z M29.9,13.5V9.4 c0-1.1,0.9-2.1,2.1-2.1c1.1,0,2.1,0.9,2.1,2.1l0,0v4.1h4.1v4.1H25.8v-4.1H29.9z M50.5,56.8h-37V13.5h8.2v8.2h20.6v-8.2h8.2 C50.5,13.5,50.5,56.8,50.5,56.8z"/><rect width="16.3" height="5.7" x="30.1" y="26.5" class="st0"/><rect width="16.3" height="5.7" x="30.1" y="47.5" class="st0"/><rect width="16.3" height="5.7" x="30.1" y="37" class="st0"/><path d="M21.4,25.5c-2.1,0-3.8,1.7-3.8,3.8s1.7,3.8,3.8,3.8s3.8-1.7,3.8-3.8l0,0C25.3,27.2,23.6,25.5,21.4,25.5z" class="st1"/><path d="M21.4,36c-2.1,0-3.8,1.7-3.8,3.8s1.7,3.8,3.8,3.8s3.8-1.7,3.8-3.8S23.6,36,21.4,36L21.4,36z" class="st1"/><path d="M21.4,46.5c-2.1,0-3.8,1.7-3.8,3.8s1.7,3.8,3.8,3.8s3.8-1.7,3.8-3.8C25.3,48.2,23.6,46.5,21.4,46.5 L21.4,46.5z" class="st1"/></g></g></g></svg>