<svg xmlns="http://www.w3.org/2000/svg" xmlns:xlink="http://www.w3.org/1999/xlink" id="Layer_1" width="40" height="40" x="0" style="enable-background:new 0 0 64 64" y="0" version="1.1" viewBox="0 0 64 64" xml:space="preserve"><style type="text/css">.st0{fill:none}.st1{fill:#d2d2d2}.st2{fill:#c2c2c2}.st3{fill:#2f2f2f}.st4{fill:#6265a8}</style><title>walkthrough_map</title><g id="Layer_2_1_"><g id="SYMBOLS"><polygon points="23.7 9.1 23.7 45 23.8 45 40.3 54.9 40.3 19 40.2 19" class="st0"/><polygon points="3 52.5 19.6 44.9 19.6 8.9 3 17.9" class="st1"/><path d="M19.6,44.9L3,52.5V17.9l16.6-9.1V44.9z" class="st2"/><polygon points="40.3 54.9 23.8 45 23.7 45 23.7 9.1 40.2 19 40.3 19" class="st3"/><polygon points="44.4 55.1 61 46.1 61 11.5 44.4 19.1" class="st4"/><polygon points="61 46.1 44.4 55.1 44.4 19.1 61 11.5" class="st4"/></g></g></svg>